<svg version="1.1" viewBox="0.0 0.0 96.0 96.0" fill="none" stroke="none" stroke-linecap="square" stroke-miterlimit="10" xmlns:xlink="http://www.w3.org/1999/xlink" xmlns="http://www.w3.org/2000/svg"><clipPath id="g344d06eb13c_0_0.0"><path d="m0 0l816.0 0l0 1056.0l-816.0 0l0 -1056.0z" clip-rule="nonzero"/></clipPath><g clip-path="url(#g344d06eb13c_0_0.0)"><path fill="none" d="m0 0l816.0 0l0 1056.0l-816.0 0z" fill-rule="evenodd"/><path fill="#38761d" d="m0 19.183376l0 0c0 -10.683395 8.660604 -19.344 19.344 -19.344l57.311996 0l0 0c5.130348 0 10.050575 2.0380228 13.678276 5.6657267c3.6277008 3.6277041 5.6657257 8.547926 5.6657257 13.678272l0 57.312c0 10.683395 -8.660606 19.344002 -19.344002 19.344002l-57.311996 0c-10.683396 0 -19.344 -8.660606 -19.344 -19.344002z" fill-rule="evenodd"/><path fill="#000000" fill-opacity="0.0" d="m7.8341136 -2.8630204l36.0 0l0 82.4252l-36.0 0z" fill-rule="evenodd"/><path fill="#ffffff" d="m12.927864 50.896976l0 -41.5l8.453125 0l12.046875 22.125l4.203125 8.953123l0.28125 0q-0.34375 -3.234375 -0.734375 -7.09375q-0.390625 -3.874998 -0.390625 -7.406248l0 -16.578125l7.84375 0l0 41.5l-8.453125 0l-11.9375 -22.171873l-4.203125 -8.90625l-0.28125 0q0.28125 3.359375 0.671875 7.109375q0.390625 3.75 0.390625 7.343748l0 16.625l-7.890625 0z" fill-rule="nonzero"/><path fill="#000000" fill-opacity="0.0" d="m57.6 17.498184l36.0 0l0 82.42519l-36.0 0z" fill-rule="evenodd"/><path fill="#ffffff" d="m62.19375 85.25818l0 -6.71875l8.953125 0l0 -26.15625l-7.5625 0l0 -5.15625q3.140625 -0.546875 5.40625 -1.359375q2.265625 -0.8125 4.234375 -2.109375l6.109375 0l0 34.78125l7.78125 0l0 6.71875l-24.921875 0z" fill-rule="nonzero"/><path fill="#000000" fill-opacity="0.0" d="m75.6 17.498184l-49.76378 62.078743" fill-rule="evenodd"/><path stroke="#ffffff" stroke-width="4.0" stroke-linejoin="round" stroke-linecap="butt" d="m75.6 17.498184l-49.76378 62.078743" fill-rule="evenodd"/><path fill="#000000" fill-opacity="0.0" d="m77.36588 19.26407l-49.76378 62.078743" fill-rule="evenodd"/><path stroke="#ffffff" stroke-width="4.0" stroke-linejoin="round" stroke-linecap="butt" d="m77.36588 19.26407l-49.76378 62.078743" fill-rule="evenodd"/></g></svg>
