<svg version="1.1" viewBox="0.0 0.0 816.0 1056.0" fill="none" stroke="none" stroke-linecap="square" stroke-miterlimit="10" xmlns:xlink="http://www.w3.org/1999/xlink" xmlns="http://www.w3.org/2000/svg"><clipPath id="p.0"><path d="m0 0l816.0 0l0 1056.0l-816.0 0l0 -1056.0z" clip-rule="nonzero"/></clipPath><g clip-path="url(#p.0)"><path fill="#ffffff" d="m0 0l816.0 0l0 1056.0l-816.0 0z" fill-rule="evenodd"/><path fill="#666666" d="m153.4146 599.4479l0 0c1.3811188 -4.7713623 6.3809204 -7.5629272 11.167389 -6.2351074l34.66667 9.616821l0 0c2.2985382 0.6376343 4.2394714 2.1593628 5.395813 4.2304077c1.1563416 2.071045 1.4333496 4.5217896 0.77012634 6.8131104l-29.423737 101.65051c-1.3811188 4.7713623 -6.3809357 7.562866 -11.167404 6.2351074l-34.666656 -9.616821c-4.786476 -1.3278198 -7.547058 -6.272156 -6.1659393 -11.043518z" fill-rule="evenodd"/><path fill="#666666" d="m219.78262 544.06964l0 0c-4.0000305 -0.73565674 -6.6245728 -4.5706787 -5.8621063 -8.565674l5.5223083 -28.934387l0 0c0.3661499 -1.918457 1.4803772 -3.6180115 3.0975494 -4.724762c1.6171722 -1.1067505 3.604828 -1.5300293 5.525711 -1.1767273l91.68785 16.863403c4.0000305 0.73565674 6.6246033 4.5706787 5.8621216 8.565674l-5.5223083 28.934387c-0.7624817 3.994995 -4.62323 6.637207 -8.6232605 5.9014893z" fill-rule="evenodd"/><path fill="#eeeeee" d="m588.1889 551.7603l180.0 0l0 422.39368l-180.0 0z" fill-rule="evenodd"/><path fill="#000000" d="m724.3295 635.5784q0 6.40625 -2.765625 11.890625q-2.765625 5.484375 -7.75 8.859375q-4.96875 3.375 -11.609375 3.375q-6.3125 0 -11.234375 -2.984375q-4.921875 -3.0 -7.03125 -7.75q-0.546875 -1.21875 -0.828125 -1.828125q-0.28125 -0.609375 -0.9375 -0.609375q-0.546875 0 -0.609375 0.890625q-0.0625 0.875 -0.0625 1.09375q0.5625 8.640625 3.4375 13.78125q2.875 5.140625 7.53125 9.015625q0.875 0.78125 0.59375 1.5q-0.265625 0.71875 -0.59375 0.71875l-28.5625 0q-0.328125 0 -0.65625 -0.71875q-0.328125 -0.71875 0.65625 -1.5q4.65625 -3.875 7.578125 -9.015625q2.9375 -5.140625 3.390625 -13.78125q0 -0.21875 -0.0625 -1.09375q-0.0625 -0.890625 -0.609375 -0.890625q-0.65625 0 -0.9375 0.609375q-0.28125 0.609375 -0.828125 1.828125q-2.109375 4.75 -7.03125 7.75q-4.921875 2.984375 -11.234375 2.984375q-6.53125 0 -11.5625 -3.375q-5.03125 -3.375 -7.796875 -8.859375q-2.765625 -5.484375 -2.765625 -11.890625q0 -5.984375 2.09375 -11.0625q2.109375 -5.09375 5.375 -9.40625q3.265625 -4.328125 6.90625 -7.921875q3.65625 -3.59375 6.640625 -6.46875q4.984375 -4.765625 9.953125 -10.015625q4.984375 -5.25 8.96875 -10.0625q3.984375 -4.828125 5.984375 -7.921875q0.21875 -0.4375 0.4375 0q2.0 3.09375 5.984375 7.921875q3.984375 4.8125 9.015625 10.0625q5.03125 5.25 9.90625 10.015625q2.984375 2.875 6.625 6.46875q3.65625 3.59375 6.921875 7.921875q3.265625 4.3125 5.359375 9.40625q2.109375 5.078125 2.109375 11.0625z" fill-rule="nonzero"/><path fill="#eeeeee" d="m409.4089 640.0539l180.00003 0l0 334.07874l-180.00003 0z" fill-rule="evenodd"/><path fill="#dd0000" d="m522.86206 667.21576q6.3125 0 11.5625 3.546875q5.265625 3.53125 8.421875 9.5625q3.15625 6.03125 3.15625 13.546875q0 6.09375 -2.171875 11.40625q-2.15625 5.3125 -5.484375 9.796875q-3.3125 4.484375 -7.015625 8.1875q-3.703125 3.703125 -6.796875 6.6875q-4.984375 4.765625 -9.96875 10.359375q-4.9687805 5.578125 -8.9062805 10.671875q-3.921875 5.09375 -6.03125 8.40625q-0.21875 0.4375 -0.4375 0q-2.0 -3.3125 -5.984375 -8.40625q-3.984375 -5.09375 -8.90625 -10.671875q-4.921875 -5.59375 -10.015625 -10.359375q-3.09375 -2.984375 -6.796875 -6.6875q-3.703125 -3.703125 -7.03125 -8.1875q-3.3125 -4.484375 -5.484375 -9.796875q-2.15625 -5.3125 -2.15625 -11.40625q0 -7.515625 3.15625 -13.546875q3.15625 -6.03125 8.40625 -9.5625q5.265625 -3.546875 11.578125 -3.546875q7.84375 0 14.15625 4.265625q6.3125 4.25 8.75 13.4375q0.21875 0.765625 0.546875 0.765625q0.328125 0 0.546875 -0.765625q2.4375 -9.1875 8.796875 -13.4375q6.3750305 -4.265625 14.1094055 -4.265625z" fill-rule="nonzero"/><path fill="#eeeeee" d="m229.40955 728.3475l180.0 0l0 245.7638l-180.0 0z" fill-rule="evenodd"/><path fill="#dd0000" d="m319.40955 749.52496q3.765625 6.96875 9.015625 14.5625q5.265625 7.578125 10.953125 14.828125q5.703125 7.234375 10.953125 13.109375q5.265625 5.859375 9.03125 9.515625q-3.765625 3.65625 -8.96875 9.515625q-5.203125 5.859375 -10.953125 13.109375q-5.75 7.25 -11.015625 14.828125q-5.25 7.578125 -9.015625 14.546875q-3.765625 -6.96875 -9.03125 -14.546875q-5.25 -7.578125 -10.953125 -14.828125q-5.6875 -7.25 -10.953125 -13.109375q-5.25 -5.859375 -9.015625 -9.515625q3.765625 -3.65625 9.015625 -9.515625q5.265625 -5.875 10.953125 -13.109375q5.703125 -7.25 10.953125 -14.828125q5.265625 -7.59375 9.03125 -14.5625z" fill-rule="nonzero"/><path fill="#eeeeee" d="m50.629578 816.64105l180.0 0l0 157.44879l-180.0 0z" fill-rule="evenodd"/><path fill="#000000" d="m134.87958 913.8498q-3.109375 4.75 -8.421883 8.125q-5.296875 3.375 -11.828125 3.375q-6.203125 0 -11.296875 -2.875q-5.078125 -2.875 -8.015625 -7.96875q-2.9375 -5.09375 -2.9375 -11.609375q0 -6.3125 2.9375 -11.453125q2.9375 -5.15625 7.96875 -8.140625q5.03125 -2.984375 11.453125 -2.984375q2.546875 0 5.078125 0.78125q2.546875 0.765625 4.4375 1.765625q0 0 0.328125 0.0625q0.328125 0.046875 0.4375 -0.28125q0.234375 -0.453125 -0.046875 -0.71875q-0.28125 -0.28125 -0.28125 -0.28125q-2.875 -2.765625 -4.875 -6.859375q-1.984375 -4.09375 -1.984375 -9.078125q0 -6.3125 3.046875 -11.5625q3.046875 -5.265625 8.234383 -8.359375q5.203125 -3.09375 11.515625 -3.09375q6.3125 0 11.453125 3.09375q5.140625 3.09375 8.234375 8.296875q3.109375 5.203125 3.109375 11.515625q0 4.984375 -2.0 9.140625q-1.984375 4.140625 -4.859375 6.90625q0 0 -0.28125 0.28125q-0.28125 0.265625 -0.046875 0.71875q0.21875 0.328125 0.484375 0.28125q0.28125 -0.0625 0.28125 -0.0625q1.890625 -1.0 4.484375 -1.765625q2.59375 -0.78125 4.921875 -0.78125q6.640625 0 11.671875 2.984375q5.03125 2.984375 7.90625 8.140625q2.890625 5.140625 2.890625 11.453125q0 6.515625 -2.9375 11.609375q-2.9375 5.09375 -7.96875 7.96875q-5.03125 2.875 -11.34375 2.875q-6.1875 0 -11.5 -3.09375q-5.3125 -3.09375 -8.75 -8.40625q-0.765625 -1.21875 -0.9375 -1.828125q-0.171875 -0.609375 -0.828125 -0.609375q-0.546875 0 -0.609375 0.890625q-0.0625 0.875 -0.0625 1.09375q0.5625 8.640625 3.4375 13.78125q2.875 5.140625 7.53125 9.015625q0.984375 0.78125 0.65625 1.5q-0.328125 0.71875 -0.65625 0.71875l-28.437508 0q-0.453125 0 -0.734375 -0.71875q-0.265625 -0.71875 0.609375 -1.5q4.6562576 -3.875 7.5781326 -9.015625q2.9375 -5.140625 3.390625 -13.78125q0 -0.21875 -0.0625 -1.09375q-0.0625 -0.890625 -0.609375 -0.890625q-0.65625 0 -0.828125 0.609375q-0.171875 0.609375 -0.9375 1.828125z" fill-rule="nonzero"/><path fill="#666666" d="m152.83315 372.17166l0 0c-2.174347 -24.283142 14.119659 -45.526703 36.393692 -47.448822l0 0c10.696381 -0.92303467 21.369446 2.8240967 29.67125 10.417114c8.301804 7.5930176 13.552307 18.409882 14.596466 30.071075l0 0c2.1743622 24.283112 -14.119659 45.526672 -36.393692 47.448822l0 0c-22.274033 1.9221191 -42.09337 -16.205078 -44.267715 -40.48819z" fill-rule="evenodd"/><path fill="#666666" d="m187.29784 621.92676l0 0c-4.5973206 -1.6391602 -6.951645 -6.679016 -5.258545 -11.256714l12.262466 -33.154846l0 0c0.8130493 -2.1983032 2.4698029 -3.9938965 4.6058044 -4.991699c2.1360016 -0.99786377 4.5762634 -1.1162109 6.783966 -0.32904053l101.80838 36.300232c4.59729 1.6391602 6.9516296 6.678955 5.258545 11.256714l-12.262482 33.154846c-1.6930847 4.577759 -6.79245 6.9599 -11.3897705 5.3206787z" fill-rule="evenodd"/><path fill="#666666" d="m261.49197 629.322l0 0c-0.87789917 -4.8881836 2.377594 -9.537109 7.271332 -10.383667l35.443573 -6.1312256l0 0c2.3500366 -0.40655518 4.771332 0.1361084 6.7311707 1.5084839c1.9598389 1.3724365 3.297699 3.4621582 3.7192993 5.8095703l15.560974 86.644714c0.8779297 4.8881836 -2.3775635 9.537109 -7.2713013 10.383667l-35.443573 6.1312256c-4.893738 0.8465576 -9.572571 -2.4298706 -10.45047 -7.318054z" fill-rule="evenodd"/><path fill="#666666" d="m150.23764 434.01273l0 0c0 -8.279907 6.712204 -14.992126 14.992126 -14.992126l59.968506 0l0 0c3.9761505 0 7.789459 1.5795288 10.601028 4.391083c2.8115692 2.8115845 4.391098 6.624878 4.391098 10.601044l0 167.77951c0 8.279968 -6.712204 14.992126 -14.992126 14.992126l-59.968506 0c-8.2799225 0 -14.992126 -6.712158 -14.992126 -14.992126z" fill-rule="evenodd"/><path fill="#666666" d="m125.13205 696.4265l0 0c2.547081 -4.235901 8.078461 -5.6602783 12.354691 -3.1815186l30.971115 17.952759l0 0c2.0535126 1.1903076 3.537033 3.1399536 4.1241913 5.420044c0.58714294 2.2800293 0.22984314 4.7037354 -0.9933014 6.737854l-45.64234 75.9046c-2.547081 4.235901 -8.078461 5.6603394 -12.354683 3.1815796l-30.97113 -17.952759c-4.276222 -2.4787598 -5.6779633 -7.922058 -3.1308746 -12.157959z" fill-rule="evenodd"/><path fill="#666666" d="m182.3716 458.69135l0 0c2.93013 -2.8710022 2.9317627 -7.527466 0.0036315918 -10.400513l-21.207352 -20.80838l0 0c-1.4061279 -1.3796997 -3.3136444 -2.155182 -5.302887 -2.1558838c-1.9892578 -6.713867E-4 -3.8973083 0.773468 -5.304413 2.1521606l-65.8615 64.53235c-2.93013 2.8710022 -2.931755 7.527466 -0.0036315918 10.400513l21.207352 20.80838c2.9281235 2.8730469 7.6771774 2.8746948 10.607307 0.0037231445z" fill-rule="evenodd"/><path fill="#666666" d="m126.719826 500.08694l0 0c0 -4.1399536 -3.356102 -7.496063 -7.496063 -7.496063l-29.984253 0l0 0c-1.9880829 0 -3.8947296 0.7897644 -5.300514 2.1955566c-1.4057846 1.4057922 -2.195549 3.312439 -2.195549 5.3005066l0 73.29135c0 4.1399536 3.356102 7.4960938 7.496063 7.4960938l29.984253 0c4.1399612 0 7.496063 -3.3561401 7.496063 -7.4960938z" fill-rule="evenodd"/><path fill="#ffffff" d="m218.19566 642.16583l-84.56694 -30.173218l3.0866241 -8.283447l84.566925 30.173218z" fill-rule="evenodd"/><path fill="#ffffff" d="m249.02202 473.79855l0 88.28348l-8.976379 0l0 -88.28348z" fill-rule="evenodd"/><path fill="#000000" fill-opacity="0.0" d="m55.671925 86.68241l706.61414 0l0 220.56693l-706.61414 0z" fill-rule="evenodd"/><path fill="#434343" d="m93.135544 134.32616l71.921875 0l0 5.84375l-71.921875 0l0 -5.84375zm4.96875 -23.6875l62.390625 0l0 5.921875l-62.390625 0l0 -5.921875zm31.75 28.328125l6.25 0l0 28.71875q0 2.15625 0.90625 2.796875q0.921875 0.640625 3.96875 0.640625q0.71875 0 2.59375 0q1.890625 0 4.171875 0q2.28125 0 4.28125 0q2.0 0 2.953125 0q2.0 0 3.0 -0.921875q1.0 -0.921875 1.390625 -3.671875q0.40625 -2.765625 0.5625 -8.203125q0.734375 0.5625 1.765625 1.078125q1.046875 0.515625 2.125 0.875q1.078125 0.359375 1.953125 0.609375q-0.390625 6.3125 -1.359375 9.875q-0.953125 3.5625 -3.078125 4.921875q-2.125 1.359375 -5.953125 1.359375q-0.5625 0 -2.09375 0q-1.515625 0 -3.484375 0q-1.953125 0 -3.921875 0q-1.953125 0 -3.46875 0q-1.515625 0 -2.0 0q-4.15625 0 -6.484375 -0.84375q-2.3125 -0.84375 -3.203125 -2.890625q-0.875 -2.03125 -0.875 -5.625l0 -28.71875zm-5.109375 -26.078125l6.078125 0q-0.15625 5.90625 -0.5625 12.109375q-0.40625 6.203125 -1.484375 12.484375q-1.078125 6.28125 -3.328125 12.328125q-2.234375 6.03125 -5.953125 11.390625q-3.71875 5.359375 -9.4375 9.921875q-5.71875 4.5625 -13.796875 7.765625q-0.71875 -1.125 -1.84375 -2.5625q-1.125 -1.4375 -2.3125 -2.328125q8.0 -2.953125 13.4375 -7.15625q5.4375 -4.203125 8.953125 -9.203125q3.53125 -5.0 5.5625 -10.59375q2.046875 -5.609375 2.953125 -11.4375q0.921875 -5.84375 1.234375 -11.59375q0.328125 -5.765625 0.5 -11.125zm72.2343 31.515625l48.0 0l0 5.59375l-48.0 0l0 -5.59375zm32.40625 -9.921875l5.90625 0l0 37.28125q0 2.5625 -0.6875 3.953125q-0.671875 1.40625 -2.671875 2.125q-1.828125 0.640625 -5.078125 0.796875q-3.234375 0.15625 -7.953125 0.15625q-0.234375 -1.1875 -0.796875 -2.828125q-0.5625 -1.640625 -1.125 -2.84375q3.59375 0.078125 6.640625 0.109375q3.046875 0.046875 4.078125 -0.03125q0.96875 -0.078125 1.328125 -0.40625q0.359375 -0.3125 0.359375 -1.109375l0 -37.203125zm-26.71875 20.484375l4.875 -2.640625q2.15625 2.078125 4.234375 4.5625q2.078125 2.46875 3.84375 4.953125q1.765625 2.484375 2.71875 4.5625l-5.203125 3.03125q-0.875 -2.078125 -2.5625 -4.625q-1.671875 -2.5625 -3.75 -5.125q-2.078125 -2.5625 -4.15625 -4.71875zm-15.28125 -49.6875l5.828125 0l0 73.515625l-5.828125 0l0 -73.515625zm-15.28125 51.28125q3.109375 -2.5625 7.546875 -6.4375q4.453125 -3.875 9.015625 -8.046875l2.3125 4.890625q-3.84375 3.75 -7.921875 7.640625q-4.078125 3.875 -7.671875 7.0l-3.28125 -5.046875zm0.390625 -37.203125l4.171875 -3.28125q2.078125 2.0 4.234375 4.328125q2.15625 2.3125 3.953125 4.640625q1.8125 2.3125 2.84375 4.15625l-4.484375 3.765625q-0.953125 -1.921875 -2.71875 -4.3125q-1.75 -2.40625 -3.875 -4.8125q-2.125 -2.40625 -4.125 -4.484375zm43.921875 -7.671875l23.125 0l-1.28125 4.953125l-24.96875 0l3.125 -4.953125zm2.71875 -6.40625l6.078125 1.765625q-2.796875 3.671875 -6.640625 7.234375q-3.828125 3.5625 -8.3125 6.53125q-4.484375 2.953125 -9.203125 5.1875q-0.484375 -0.5625 -1.203125 -1.28125q-0.71875 -0.71875 -1.4375 -1.4375q-0.71875 -0.71875 -1.359375 -1.203125q4.640625 -1.90625 8.84375 -4.625q4.203125 -2.734375 7.59375 -5.84375q3.40625 -3.125 5.640625 -6.328125zm-9.75 18.40625l4.390625 -2.640625q2.40625 1.921875 4.875 4.40625q2.484375 2.46875 3.765625 4.546875l-4.71875 2.890625q-1.203125 -2.0 -3.5625 -4.59375q-2.359375 -2.609375 -4.75 -4.609375zm28.0 -12.0l1.1875 0l1.046875 -0.25l3.921875 2.09375q-2.796875 6.078125 -7.359375 10.84375q-4.5625 4.75 -10.28125 8.28125q-5.71875 3.515625 -12.171875 5.953125q-6.4375 2.4375 -13.0625 3.953125q-0.40625 -1.125 -1.25 -2.515625q-0.84375 -1.40625 -1.71875 -2.28125q6.15625 -1.203125 12.234375 -3.359375q6.09375 -2.15625 11.40625 -5.3125q5.328125 -3.171875 9.484375 -7.25q4.15625 -4.078125 6.5625 -9.125l0 -1.03125zm24.312439 3.921875l62.640625 0l0 5.671875l-62.640625 0l0 -5.671875zm-3.03125 0l6.078125 0l0 21.828125q0 4.5625 -0.28125 10.015625q-0.28125 5.4375 -1.09375 11.125q-0.796875 5.671875 -2.3125 11.03125q-1.515625 5.359375 -3.921875 9.828125q-0.5625 -0.546875 -1.5625153 -1.1875q-1.0 -0.640625 -2.0 -1.25q-1.0 -0.59375 -1.71875 -0.921875q2.328125 -4.234375 3.6875 -9.1875q1.3593903 -4.96875 2.0312653 -10.125q0.6875 -5.15625 0.890625 -10.109375q0.203125 -4.96875 0.203125 -9.21875l0 -21.828125zm27.75 -9.359375l5.84375 -1.609375q1.515625 2.640625 2.953125 5.71875q1.453125 3.078125 2.25 5.25l-6.171875 1.828125q-0.625 -2.234375 -2.078125 -5.4375q-1.4375 -3.203125 -2.796875 -5.75zm-16.3125 27.03125l5.1875 -2.15625q1.765625 4.40625 3.515625 9.328125q1.765625 4.90625 3.25 9.59375q1.484375 4.671875 2.359375 8.4375l-5.671875 2.3125q-0.71875 -3.75 -2.171875 -8.46875q-1.4375 -4.71875 -3.15625 -9.71875q-1.71875 -5.0 -3.3125 -9.328125zm17.359375 -4.484375l5.4375 -1.515625q1.4375 4.40625 2.796875 9.28125q1.359375 4.875 2.46875 9.5625q1.125 4.671875 1.6875 8.4375l-5.75 1.765625q-0.5625 -3.765625 -1.640625 -8.515625q-1.078125 -4.765625 -2.40625 -9.6875q-1.3125 -4.921875 -2.59375 -9.328125zm27.03125 -2.0l6.328125 2.328125q-2.15625 7.4375 -5.15625 15.28125q-3.0 7.84375 -6.734375 15.40625q-3.71875 7.546875 -8.109375 14.265625q-0.640625 -0.796875 -1.8125 -1.875q-1.15625 -1.078125 -2.109375 -1.796875q4.078125 -6.328125 7.46875 -13.71875q3.40625 -7.40625 6.0 -15.078125q2.609375 -7.6875 4.125 -14.8125zm-48.796875 42.5625l59.6875 0l0 5.765625l-59.6875 0l0 -5.765625zm128.40616 -63.359375l6.234375 0l0 72.96875l-6.234375 0l0 -72.96875zm-24.890625 58.078125l-0.46875 -5.59375l2.875 -2.3125l24.15625 -5.53125q0.15625 1.28125 0.515625 2.765625q0.375 1.484375 0.6875 2.4375q-8.5625 2.234375 -13.765625 3.59375q-5.1875 1.359375 -7.953125 2.203125q-2.765625 0.84375 -4.046875 1.375q-1.28125 0.515625 -2.0 1.0625zm0 0q-0.234375 -0.71875 -0.71875 -1.625q-0.46875 -0.921875 -1.078125 -1.875q-0.59375 -0.96875 -1.078125 -1.53125q1.203125 -0.640625 2.84375 -2.203125q1.640625 -1.5625 1.640625 -4.203125l0 -40.078125l6.078125 0l0 44.96875q0 0 -0.765625 0.4375q-0.75 0.4375 -1.921875 1.203125q-1.15625 0.75 -2.28125 1.640625q-1.109375 0.875 -1.921875 1.75q-0.796875 0.875 -0.796875 1.515625zm-29.109375 -51.515625l21.75 0l0 46.234375l-21.75 0l0 -5.671875l16.0 0l0 -34.953125l-16.0 0l0 -5.609375zm-3.53125 0l5.6875 0l0 53.609375l-5.6875 0l0 -53.609375zm92.96869 22.484375l0 30.484375l-5.6875 0l0 -24.890625l-10.875 0l0 -5.59375l16.5625 0zm-15.4375 -22.71875l4.5625 -3.046875q1.90625 1.84375 4.21875 4.171875q2.328125 2.3125 4.40625 4.46875q2.09375 2.15625 3.453125 3.765625l-4.890625 3.59375q-1.1875 -1.671875 -3.234375 -3.90625q-2.046875 -2.25 -4.28125 -4.640625q-2.234375 -2.40625 -4.234375 -4.40625zm31.59375 10.078125l0 7.359375l25.6875 0l0 -7.359375l-25.6875 0zm-5.515625 -4.15625l36.953125 0l0 15.75l-36.953125 0l0 -15.75zm-6.484375 -9.765625l49.84375 0l0 4.875l-49.84375 0l0 -4.875zm21.84375 31.921875l5.515625 0l0 22.796875l-5.515625 0l0 -22.796875zm-28.96875 22.796875q1.359375 0 2.5625 0.640625q1.203125 0.640625 2.71875 1.6875q1.53125 1.03125 3.84375 2.3125q3.921875 2.15625 9.125 2.84375q5.203125 0.671875 11.75 0.671875q4.640625 0 9.875 -0.1875q5.25 -0.203125 10.25 -0.515625q5.0 -0.328125 8.921875 -0.734375q-0.40625 0.71875 -0.765625 1.84375q-0.359375 1.125 -0.640625 2.28125q-0.28125 1.15625 -0.359375 2.03125q-2.15625 0.09375 -5.5625 0.25q-3.390625 0.15625 -7.359375 0.265625q-3.953125 0.125 -7.75 0.203125q-3.796875 0.09375 -6.765625 0.09375q-7.125 0 -12.484375 -0.8125q-5.359375 -0.796875 -9.59375 -3.1875q-2.5625 -1.453125 -4.53125 -2.921875q-1.953125 -1.484375 -3.3125 -1.484375q-1.359375 0 -3.0 1.328125q-1.640625 1.3125 -3.4375 3.421875q-1.796875 2.125 -3.640625 4.53125l-3.921875 -5.4375q3.921875 -4.078125 7.5625 -6.59375q3.640625 -2.53125 6.515625 -2.53125zm15.53125 -8.953125l0 7.109375l32.953125 0l0 -7.109375l-32.953125 0zm0 -11.203125l0 7.03125l32.953125 0l0 -7.03125l-32.953125 0zm-5.609375 -4.15625l44.328125 0l0 26.640625l-44.328125 0l0 -26.640625zm68.24994 -29.453125l51.671875 0l0 20.640625l-51.671875 0l0 -5.1875l45.671875 0l0 -10.25l-45.671875 0l0 -5.203125zm-3.53125 0l5.921875 0l0 19.125q0 5.203125 -0.40625 11.40625q-0.390625 6.203125 -1.546875 12.71875q-1.15625 6.515625 -3.328125 12.71875q-2.15625 6.203125 -5.828125 11.390625q-0.40625 -0.625 -1.328125 -1.359375q-0.921875 -0.71875 -1.890625 -1.40625q-0.953125 -0.671875 -1.59375 -1.0625q3.359375 -4.796875 5.359375 -10.515625q2.0 -5.734375 3.0 -11.6875q1.0 -5.96875 1.3125 -11.640625q0.328125 -5.6875 0.328125 -10.5625l0 -19.125zm3.609375 27.53125l53.203125 0l0 5.359375l-53.203125 0l0 -5.359375zm12.0 11.671875l27.359375 0l0 20.71875l-27.359375 0l0 -4.953125l21.75 0l0 -10.796875l-21.75 0l0 -4.96875zm-3.203125 0l5.59375 0l0 25.359375l-5.59375 0l0 -25.359375zm42.40625 -11.671875l6.0 0q0 0 0 0.515625q0 0.515625 0 1.15625q0 0.640625 -0.09375 1.125q-0.390625 9.203125 -0.796875 15.640625q-0.390625 6.4375 -0.875 10.640625q-0.484375 4.203125 -1.125 6.5625q-0.640625 2.359375 -1.59375 3.46875q-1.125 1.359375 -2.40625 1.84375q-1.28125 0.484375 -3.109375 0.71875q-1.6875 0.15625 -4.578125 0.15625q-2.875 0 -6.15625 -0.234375q-0.078125 -1.203125 -0.515625 -2.796875q-0.4375 -1.59375 -1.15625 -2.796875q3.203125 0.234375 5.875 0.3125q2.6875 0.078125 3.796875 0.078125q1.125 0 1.765625 -0.203125q0.640625 -0.1875 1.203125 -0.828125q0.953125 -1.046875 1.625 -4.5625q0.6875 -3.515625 1.203125 -10.671875q0.53125 -7.171875 0.9375 -19.015625l0 -1.109375zm33.03119 -31.359375l5.609375 1.59375q-2.25 6.796875 -5.375 13.40625q-3.109375 6.59375 -6.75 12.4375q-3.640625 5.84375 -7.640625 10.390625q-0.234375 -0.71875 -0.875 -1.828125q-0.640625 -1.125 -1.328125 -2.28125q-0.671875 -1.15625 -1.3125 -1.796875q3.59375 -3.921875 6.875 -9.078125q3.28125 -5.171875 6.03125 -11.0q2.765625 -5.84375 4.765625 -11.84375zm-7.28125 20.5625l5.609375 -5.6875l0.15625 0.078125l0 58.15625l-5.765625 0l0 -52.546875zm33.6875 -20.640625l5.828125 0l0 72.875l-5.828125 0l0 -72.875zm-22.640625 15.90625l52.46875 0l0 5.765625l-52.46875 0l0 -5.765625zm9.4375 37.046875l31.921875 0l0 5.515625l-31.921875 0l0 -5.515625zm21.921875 -34.078125q2.3125 7.125 5.828125 14.125q3.53125 7.0 7.84375 12.875q4.328125 5.875 8.96875 9.640625q-1.046875 0.796875 -2.375 2.15625q-1.3125 1.359375 -2.1875 2.5625q-4.640625 -4.328125 -8.921875 -10.6875q-4.28125 -6.359375 -7.796875 -13.90625q-3.515625 -7.5625 -5.921875 -15.40625l4.5625 -1.359375zm-11.28125 -0.328125l4.484375 1.28125q-2.484375 8.078125 -6.125 15.71875q-3.640625 7.640625 -8.046875 14.09375q-4.390625 6.4375 -9.1875 10.828125q-0.484375 -0.71875 -1.25 -1.59375q-0.75 -0.875 -1.5625 -1.671875q-0.796875 -0.8125 -1.515625 -1.296875q4.71875 -3.75 9.109375 -9.75q4.40625 -6.0 8.078125 -13.15625q3.6875 -7.171875 6.015625 -14.453125zm58.953064 30.484375l6.0 2.15625q-2.390625 3.203125 -5.4375 6.40625q-3.03125 3.203125 -6.28125 6.0q-3.234375 2.796875 -6.28125 4.953125q-0.5625 -0.546875 -1.515625 -1.3125q-0.953125 -0.765625 -1.953125 -1.484375q-1.0 -0.71875 -1.8125 -1.203125q4.8125 -2.875 9.453125 -7.03125q4.640625 -4.15625 7.828125 -8.484375zm28.0 2.71875l4.71875 -3.109375q3.359375 2.46875 7.0 5.4375q3.640625 2.953125 6.875 5.84375q3.25 2.875 5.40625 5.1875l-5.109375 3.609375q-1.921875 -2.25 -5.125 -5.25q-3.203125 -3.0 -6.8125 -6.078125q-3.59375 -3.078125 -6.953125 -5.640625zm-13.1875 -9.109375l6.078125 0l0 22.796875q0 2.46875 -0.6875 3.828125q-0.671875 1.375 -2.671875 2.171875q-2.0 0.71875 -5.046875 0.875q-3.046875 0.15625 -7.4375 0.15625q-0.234375 -1.359375 -0.921875 -3.078125q-0.6875 -1.71875 -1.40625 -2.921875q2.484375 0.078125 4.59375 0.171875q2.125 0.078125 3.6875 0.046875q1.5625 -0.046875 2.203125 -0.046875q1.046875 -0.09375 1.328125 -0.359375q0.28125 -0.28125 0.28125 -0.921875l0 -22.71875zm26.546875 -42.328125l4.171875 5.046875q-5.609375 1.359375 -12.65625 2.4375q-7.03125 1.078125 -14.75 1.875q-7.71875 0.796875 -15.640625 1.359375q-7.921875 0.5625 -15.28125 0.875q-0.078125 -1.109375 -0.5625 -2.625q-0.46875 -1.53125 -0.953125 -2.5625q7.28125 -0.40625 15.03125 -0.96875q7.765625 -0.5625 15.234375 -1.359375q7.484375 -0.796875 14.0 -1.796875q6.53125 -1.0 11.40625 -2.28125zm-53.921875 47.046875q-0.078125 -0.640625 -0.40625 -1.640625q-0.3125 -1.0 -0.671875 -2.078125q-0.359375 -1.09375 -0.75 -1.890625q1.921875 -0.234375 4.640625 -1.359375q2.71875 -1.125 6.46875 -2.953125q2.09375 -0.96875 6.09375 -3.203125q4.0 -2.234375 9.109375 -5.359375q5.125 -3.125 10.59375 -6.875q5.484375 -3.765625 10.453125 -7.84375l4.640625 3.84375q-11.28125 8.546875 -22.921875 15.234375q-11.640625 6.671875 -23.0 11.484375l0 0.234375q0 0 -0.640625 0.203125q-0.640625 0.203125 -1.484375 0.5625q-0.84375 0.359375 -1.484375 0.796875q-0.640625 0.4375 -0.640625 0.84375zm0 0l-0.15625 -4.328125l4.078125 -2.15625l51.203125 -3.4375q-0.15625 1.203125 -0.15625 2.609375q0 1.390625 0.078125 2.265625q-11.921875 0.875 -20.4375 1.515625q-8.515625 0.640625 -14.359375 1.09375q-5.84375 0.4375 -9.484375 0.796875q-3.640625 0.359375 -5.71875 0.59375q-2.078125 0.234375 -3.203125 0.484375q-1.109375 0.234375 -1.84375 0.5625zm4.328125 -16.71875q-0.078125 -0.5625 -0.359375 -1.5625q-0.28125 -1.0 -0.640625 -2.03125q-0.359375 -1.046875 -0.6875 -1.78125q1.203125 -0.15625 2.6875 -1.03125q1.484375 -0.875 3.234375 -2.15625q0.96875 -0.640625 2.84375 -2.15625q1.875 -1.53125 4.28125 -3.609375q2.40625 -2.078125 4.875 -4.5625q2.484375 -2.484375 4.640625 -5.03125l5.125 2.875q-5.203125 5.359375 -10.84375 10.078125q-5.640625 4.71875 -11.234375 8.15625l0 0.171875q0 0 -0.609375 0.234375q-0.59375 0.234375 -1.359375 0.640625q-0.75 0.390625 -1.359375 0.875q-0.59375 0.484375 -0.59375 0.890625zm0 0l0 -4.09375l3.359375 -1.75l27.6875 -1.4375q-0.25 1.109375 -0.40625 2.515625q-0.15625 1.390625 -0.234375 2.28125q-9.53125 0.484375 -15.25 0.890625q-5.71875 0.390625 -8.71875 0.625q-3.0 0.234375 -4.328125 0.484375q-1.3125 0.234375 -2.109375 0.484375zm38.484375 0.796875l4.640625 -2.40625q3.03125 2.71875 6.1875 5.921875q3.171875 3.203125 5.84375 6.328125q2.6875 3.109375 4.28125 5.515625l-4.796875 2.875q-1.515625 -2.484375 -4.203125 -5.671875q-2.671875 -3.203125 -5.796875 -6.515625q-3.125 -3.328125 -6.15625 -6.046875z" fill-rule="nonzero"/><path fill="#434343" d="m180.32628 237.7624l0 -35.1875l4.515625 0l12.859375 22.171875l3.796875 7.25l0.234375 0q-0.234375 -2.640625 -0.4375 -5.515625q-0.1875 -2.875 -0.1875 -5.609375l0 -18.296875l4.234375 0l0 35.1875l-4.5625 0l-12.8125 -22.21875l-3.796875 -7.203125l-0.1875 0q0.140625 2.640625 0.328125 5.40625q0.203125 2.75 0.203125 5.53125l0 18.484375l-4.1875 0zm32.063446 -11.765625l0 -3.359375l12.34375 0l0 3.359375l-12.34375 0zm28.999786 12.390625q-3.171875 0 -5.953125 -1.609375q-2.78125 -1.609375 -4.4375 -4.65625q-1.65625 -3.046875 -1.65625 -7.375q0 -4.359375 1.65625 -7.40625q1.65625 -3.046875 4.4375 -4.671875q2.78125 -1.640625 5.953125 -1.640625q2.390625 0 4.578125 0.921875q2.1875 0.90625 3.859375 2.6875q1.6875 1.765625 2.640625 4.3125q0.96875 2.546875 0.96875 5.796875q0 4.328125 -1.6875 7.375q-1.671875 3.046875 -4.40625 4.65625q-2.734375 1.609375 -5.953125 1.609375zm0 -3.65625q2.25 0 3.953125 -1.234375q1.703125 -1.25 2.65625 -3.5q0.96875 -2.265625 0.96875 -5.25q0 -3.015625 -0.96875 -5.265625q-0.953125 -2.265625 -2.65625 -3.515625q-1.703125 -1.25 -3.953125 -1.25q-2.265625 0 -3.96875 1.25q-1.703125 1.25 -2.640625 3.515625q-0.921875 2.25 -0.921875 5.265625q0 2.984375 0.921875 5.25q0.9375 2.25 2.640625 3.5q1.703125 1.234375 3.96875 1.234375zm24.236435 3.03125l-9.40625 -26.0625l4.5625 0l4.890625 14.828125q0.625 1.921875 1.21875 3.875q0.609375 1.9375 1.1875 3.8125l0.234375 0q0.625 -1.875 1.21875 -3.8125q0.609375 -1.953125 1.1875 -3.875l4.9375 -14.828125l4.328125 0l-9.21875 26.0625l-5.140625 0zm29.609558 0.625q-3.5 0 -6.328125 -1.625q-2.828125 -1.640625 -4.484375 -4.6875q-1.65625 -3.046875 -1.65625 -7.328125q0 -3.203125 0.953125 -5.71875q0.96875 -2.53125 2.625 -4.328125q1.65625 -1.796875 3.765625 -2.734375q2.109375 -0.9375 4.3125 -0.9375q3.359375 0 5.65625 1.484375q2.3125 1.484375 3.53125 4.25q1.234375 2.765625 1.234375 6.5q0 0.71875 -0.046875 1.34375q-0.046875 0.625 -0.140625 1.15625l-17.578125 0q0.140625 2.78125 1.265625 4.828125q1.140625 2.03125 3.0 3.171875q1.875 1.125 4.375 1.125q1.921875 0 3.484375 -0.546875q1.5625 -0.5625 3.046875 -1.515625l1.53125 2.921875q-1.671875 1.109375 -3.796875 1.875q-2.109375 0.765625 -4.75 0.765625zm-8.203125 -15.75l13.96875 0q0 -3.9375 -1.703125 -6.015625q-1.703125 -2.09375 -4.78125 -2.09375q-1.8125 0 -3.421875 0.96875q-1.609375 0.953125 -2.6875 2.734375q-1.078125 1.765625 -1.375 4.40625zm24.248322 15.125l0 -26.0625l3.59375 0l0.4375 4.75l0.09375 0q1.34375 -2.5 3.28125 -3.953125q1.953125 -1.46875 4.109375 -1.46875q0.90625 0 1.546875 0.125q0.65625 0.109375 1.234375 0.453125l-0.8125 3.78125q-0.671875 -0.1875 -1.203125 -0.296875q-0.53125 -0.125 -1.34375 -0.125q-1.578125 0 -3.40625 1.375q-1.828125 1.359375 -3.125 4.671875l0 16.75l-4.40625 0zm15.013306 -11.765625l0 -3.359375l12.34375 0l0 3.359375l-12.34375 0zm18.67163 11.765625l0 -3.640625l7.875 0l0 -25.25l-6.28125 0l0 -2.796875q2.34375 -0.421875 4.09375 -1.046875q1.75 -0.625 3.203125 -1.484375l3.359375 0l0 30.578125l7.046875 0l0 3.640625l-19.296875 0zm51.845215 0.625q-4.65625 0 -8.234375 -2.15625q-3.578125 -2.171875 -5.625 -6.25q-2.03125 -4.078125 -2.03125 -9.78125q0 -4.28125 1.203125 -7.65625q1.203125 -3.390625 3.375 -5.734375q2.1875 -2.359375 5.109375 -3.609375q2.9375 -1.25 6.4375 -1.25q3.703125 0 6.140625 1.375q2.453125 1.359375 4.0 2.953125l-2.40625 2.875q-1.34375 -1.390625 -3.140625 -2.34375q-1.796875 -0.96875 -4.4375 -0.96875q-3.5625 0 -6.203125 1.734375q-2.640625 1.71875 -4.078125 4.921875q-1.4375 3.1875 -1.4375 7.546875q0 4.46875 1.359375 7.71875q1.375 3.234375 4.015625 4.984375q2.640625 1.75 6.390625 1.75q1.859375 0 3.5625 -0.546875q1.71875 -0.5625 2.765625 -1.515625l0 -9.21875l-7.484375 0l0 -3.6875l11.5625 0l0 14.78125q-1.71875 1.765625 -4.53125 2.921875q-2.8125 1.15625 -6.3125 1.15625zm24.822083 0q-2.171875 0 -3.90625 -0.859375q-1.71875 -0.875 -2.703125 -2.53125q-0.984375 -1.65625 -0.984375 -4.0q0 -4.28125 3.8125 -6.546875q3.828125 -2.28125 12.171875 -3.203125q0 -1.671875 -0.453125 -3.1875q-0.453125 -1.515625 -1.609375 -2.453125q-1.15625 -0.9375 -3.3125 -0.9375q-2.25 0 -4.25 0.890625q-1.984375 0.890625 -3.578125 1.90625l-1.671875 -3.03125q1.203125 -0.765625 2.78125 -1.5625q1.578125 -0.796875 3.453125 -1.3125q1.875 -0.53125 3.984375 -0.53125q3.171875 0 5.15625 1.34375q2.0 1.34375 2.9375 3.71875q0.9375 2.375 0.9375 5.640625l0 16.03125l-3.609375 0l-0.375 -3.125l-0.140625 0q-1.828125 1.546875 -4.015625 2.65625q-2.1875 1.09375 -4.625 1.09375zm1.234375 -3.546875q1.875 0 3.578125 -0.859375q1.703125 -0.875 3.578125 -2.5625l0 -7.234375q-4.359375 0.46875 -6.953125 1.359375q-2.59375 0.890625 -3.703125 2.171875q-1.09375 1.265625 -1.09375 2.984375q0 2.265625 1.34375 3.203125q1.34375 0.9375 3.25 0.9375zm19.789673 2.921875l0 -26.0625l3.59375 0l0.4375 3.796875l0.09375 0q1.71875 -1.875 3.765625 -3.171875q2.046875 -1.296875 4.34375 -1.296875q3.03125 0 4.703125 1.34375q1.6875 1.34375 2.5 3.640625q2.0625 -2.203125 4.140625 -3.59375q2.09375 -1.390625 4.5 -1.390625q3.984375 0 5.921875 2.625q1.953125 2.609375 1.953125 7.59375l0 16.515625l-4.375 0l0 -15.9375q0 -3.6875 -1.1875 -5.3125q-1.171875 -1.640625 -3.65625 -1.640625q-1.5 0 -3.109375 0.984375q-1.59375 0.984375 -3.46875 3.0l0 18.90625l-4.375 0l0 -15.9375q0 -3.6875 -1.171875 -5.3125q-1.171875 -1.640625 -3.671875 -1.640625q-1.484375 0 -3.125 0.984375q-1.625 0.984375 -3.40625 3.0l0 18.90625l-4.40625 0zm54.994965 0.625q-3.5 0 -6.328125 -1.625q-2.828125 -1.640625 -4.484375 -4.6875q-1.65625 -3.046875 -1.65625 -7.328125q0 -3.203125 0.953125 -5.71875q0.96875 -2.53125 2.625 -4.328125q1.65625 -1.796875 3.765625 -2.734375q2.109375 -0.9375 4.3125 -0.9375q3.359375 0 5.65625 1.484375q2.3125 1.484375 3.53125 4.25q1.234375 2.765625 1.234375 6.5q0 0.71875 -0.046875 1.34375q-0.046875 0.625 -0.140625 1.15625l-17.578125 0q0.140625 2.78125 1.265625 4.828125q1.140625 2.03125 3.0 3.171875q1.875 1.125 4.375 1.125q1.921875 0 3.484375 -0.546875q1.5625 -0.5625 3.046875 -1.515625l1.53125 2.921875q-1.671875 1.109375 -3.796875 1.875q-2.109375 0.765625 -4.75 0.765625zm-8.203125 -15.75l13.96875 0q0 -3.9375 -1.703125 -6.015625q-1.703125 -2.09375 -4.78125 -2.09375q-1.8125 0 -3.421875 0.96875q-1.609375 0.953125 -2.6875 2.734375q-1.078125 1.765625 -1.375 4.40625zm35.42221 15.125l0 -35.1875l20.265625 0l0 3.75l-15.84375 0l0 11.90625l13.4375 0l0 3.734375l-13.4375 0l0 15.796875l-4.421875 0zm35.335144 0.625q-3.171875 0 -5.953125 -1.609375q-2.78125 -1.609375 -4.4375 -4.65625q-1.65625 -3.046875 -1.65625 -7.375q0 -4.359375 1.65625 -7.40625q1.65625 -3.046875 4.4375 -4.671875q2.78125 -1.640625 5.953125 -1.640625q2.390625 0 4.578125 0.921875q2.1875 0.90625 3.859436 2.6875q1.6875 1.765625 2.640625 4.3125q0.96875 2.546875 0.96875 5.796875q0 4.328125 -1.6875 7.375q-1.671875 3.046875 -4.406311 4.65625q-2.734375 1.609375 -5.953125 1.609375zm0 -3.65625q2.25 0 3.953125 -1.234375q1.703125 -1.25 2.65625 -3.5q0.96881104 -2.265625 0.96881104 -5.25q0 -3.015625 -0.96881104 -5.265625q-0.953125 -2.265625 -2.65625 -3.515625q-1.703125 -1.25 -3.953125 -1.25q-2.265625 0 -3.96875 1.25q-1.703125 1.25 -2.640625 3.515625q-0.921875 2.25 -0.921875 5.265625q0 2.984375 0.921875 5.25q0.9375 2.25 2.640625 3.5q1.703125 1.234375 3.96875 1.234375zm18.963074 3.03125l0 -26.0625l3.59375 0l0.4375 4.75l0.09375 0q1.34375 -2.5 3.28125 -3.953125q1.953125 -1.46875 4.109375 -1.46875q0.90625 0 1.546875 0.125q0.65625 0.109375 1.234375 0.453125l-0.8125 3.78125q-0.671875 -0.1875 -1.203125 -0.296875q-0.53125 -0.125 -1.34375 -0.125q-1.578125 0 -3.40625 1.375q-1.828125 1.359375 -3.125 4.671875l0 16.75l-4.40625 0zm28.217651 0.625q-3.453125 0 -6.21875 -1.609375q-2.75 -1.609375 -4.359375 -4.65625q-1.609375 -3.046875 -1.609375 -7.375q0 -4.359375 1.71875 -7.40625q1.734375 -3.046875 4.609375 -4.671875q2.890625 -1.640625 6.203125 -1.640625q2.53125 0 4.375 0.921875q1.859375 0.90625 3.203125 2.15625l-2.203125 2.875q-1.109375 -1.015625 -2.390625 -1.640625q-1.265625 -0.625 -2.796875 -0.625q-2.359375 0 -4.234375 1.25q-1.859375 1.25 -2.921875 3.515625q-1.046875 2.25 -1.046875 5.265625q0 2.984375 1.03125 5.25q1.03125 2.25 2.828125 3.5q1.796875 1.234375 4.203125 1.234375q1.8125 0 3.34375 -0.734375q1.546875 -0.75 2.796875 -1.84375l1.921875 2.96875q-1.78125 1.53125 -3.9375 2.40625q-2.15625 0.859375 -4.515625 0.859375zm23.465332 0q-3.5 0 -6.328125 -1.625q-2.828125 -1.640625 -4.484375 -4.6875q-1.65625 -3.046875 -1.65625 -7.328125q0 -3.203125 0.953125 -5.71875q0.96875 -2.53125 2.625 -4.328125q1.65625 -1.796875 3.765625 -2.734375q2.109375 -0.9375 4.3125 -0.9375q3.359375 0 5.65625 1.484375q2.3125 1.484375 3.53125 4.25q1.234375 2.765625 1.234375 6.5q0 0.71875 -0.046875 1.34375q-0.046875 0.625 -0.140625 1.15625l-17.578125 0q0.140625 2.78125 1.265625 4.828125q1.140625 2.03125 3.0 3.171875q1.875 1.125 4.375 1.125q1.921875 0 3.484375 -0.546875q1.5625 -0.5625 3.046875 -1.515625l1.53125 2.921875q-1.671875 1.109375 -3.796875 1.875q-2.109375 0.765625 -4.75 0.765625zm-8.203125 -15.75l13.96875 0q0 -3.9375 -1.703125 -6.015625q-1.703125 -2.09375 -4.78125 -2.09375q-1.8125 0 -3.421875 0.96875q-1.609375 0.953125 -2.6875 2.734375q-1.078125 1.765625 -1.375 4.40625z" fill-rule="nonzero"/><path fill="#000000" fill-opacity="0.0" d="m610.693 307.24976l134.99213 0l0 178.77167l-134.99213 0z" fill-rule="evenodd"/><path fill="#434343" d="m643.59534 325.13165l12.96875 0l0 2.6875l-12.96875 0l0 -2.6875zm16.125 0.046875l15.484375 0l0 2.6875l-15.484375 0l0 -2.6875zm-15.359375 -3.921875l3.03125 0.765625q-0.8125 2.25 -1.921875 4.34375q-1.109375 2.09375 -2.453125 3.90625q-1.34375 1.8125 -2.75 3.21875q-0.296875 -0.296875 -0.796875 -0.609375q-0.484375 -0.328125 -0.984375 -0.640625q-0.484375 -0.328125 -0.859375 -0.546875q2.125 -1.875 3.890625 -4.640625q1.78125 -2.78125 2.84375 -5.796875zm16.59375 0.078125l3.078125 0.6875q-0.9375 3.109375 -2.515625 5.90625q-1.578125 2.796875 -3.375 4.71875q-0.25 -0.265625 -0.734375 -0.609375q-0.46875 -0.34375 -0.984375 -0.671875q-0.5 -0.34375 -0.921875 -0.515625q1.828125 -1.75 3.25 -4.234375q1.4375 -2.5 2.203125 -5.28125zm-14.15625 5.796875l2.640625 -0.96875q0.890625 1.3125 1.765625 2.953125q0.875 1.640625 1.265625 2.796875l-2.859375 1.15625q-0.34375 -1.203125 -1.15625 -2.875q-0.8125 -1.6875 -1.65625 -3.0625zm17.484375 -0.03125l2.640625 -1.109375q1.078125 1.40625 2.140625 3.109375q1.0625 1.703125 1.578125 2.9375l-2.78125 1.234375q-0.421875 -1.234375 -1.46875 -3.0q-1.046875 -1.765625 -2.109375 -3.171875zm-13.78125 19.65625l12.921875 0l0 2.390625l-12.921875 0l0 -2.390625zm-10.40625 -8.90625l3.109375 0l0 22.6875l-3.109375 0l0 -22.6875zm10.359375 -3.59375l21.765625 0l0 2.90625l-21.765625 0l0 -2.90625zm-8.4375 -0.03125l2.34375 -1.625q1.359375 1.15625 2.765625 2.625q1.421875 1.46875 2.140625 2.625l-2.46875 1.75q-0.6875 -1.109375 -2.078125 -2.640625q-1.375 -1.546875 -2.703125 -2.734375zm28.5 0.03125l3.15625 0l0 22.53125q0 1.3125 -0.34375 2.015625q-0.34375 0.703125 -1.328125 1.09375q-0.984375 0.34375 -2.609375 0.40625q-1.609375 0.0625 -4.0 0.0625q-0.078125 -0.640625 -0.390625 -1.4375q-0.296875 -0.78125 -0.640625 -1.375q1.203125 0 2.28125 0.03125q1.09375 0.046875 1.90625 0.03125q0.8125 -0.015625 1.109375 -0.015625q0.515625 -0.046875 0.6875 -0.21875q0.171875 -0.171875 0.171875 -0.640625l0 -22.484375zm-18.5625 8.921875l0 9.8125l10.03125 0l0 -9.8125l-10.03125 0zm-2.765625 -2.484375l15.6875 0l0 14.765625l-15.6875 0l0 -14.765625zm48.578064 -10.4375l3.28125 0l0 30.328125l-3.28125 0l0 -30.328125zm-10.15625 8.3125l0 4.609375l24.0625 0l0 -4.609375l-24.0625 0zm0 -7.078125l0 4.515625l24.0625 0l0 -4.515625l-24.0625 0zm-3.109375 -2.734375l30.421875 0l0 17.15625l-30.421875 0l0 -17.15625zm-4.015625 21.203125l38.1875 0l0 2.984375l-38.1875 0l0 -2.984375zm7.734375 -27.125l2.71875 -1.28125q1.328125 1.453125 2.640625 3.21875q1.328125 1.765625 1.96875 3.125l-2.859375 1.421875q-0.640625 -1.28125 -1.90625 -3.140625q-1.25 -1.859375 -2.5625 -3.34375zm20.21875 -1.28125l3.453125 1.140625q-1.28125 2.046875 -2.765625 4.171875q-1.46875 2.109375 -2.703125 3.5625l-2.71875 -1.078125q0.796875 -1.015625 1.6875 -2.375q0.90625 -1.375 1.71875 -2.796875q0.8125 -1.4375 1.328125 -2.625z" fill-rule="nonzero"/><path fill="#434343" d="m638.22034 403.72852l37.359375 0l0 2.984375l-37.359375 0l0 -2.984375zm10.453125 15.21875l20.0 0l0 2.734375l-20.0 0l0 -2.734375zm-2.265625 -7.296875l21.75 0l0 2.90625l-18.59375 0l0 22.828125l-3.15625 0l0 -25.734375zm21.03125 0l3.15625 0l0 21.765625q0 1.40625 -0.390625 2.1875q-0.375 0.796875 -1.4375 1.21875q-1.078125 0.34375 -2.890625 0.40625q-1.8125 0.0625 -4.53125 0.0625q-0.140625 -0.640625 -0.4375 -1.53125q-0.296875 -0.890625 -0.640625 -1.53125q1.40625 0.03125 2.671875 0.046875q1.265625 0.03125 2.203125 0q0.9375 -0.015625 1.359375 -0.015625q0.546875 0 0.734375 -0.1875q0.203125 -0.1875 0.203125 -0.703125l0 -21.71875zm-15.234375 -13.46875l3.25 0.765625q-1.453125 4.65625 -3.671875 9.21875q-2.21875 4.5625 -5.328125 8.515625q-3.109375 3.9375 -7.171875 6.828125q-0.203125 -0.375 -0.59375 -0.8125q-0.390625 -0.453125 -0.78125 -0.90625q-0.375 -0.453125 -0.671875 -0.75q2.859375 -1.953125 5.21875 -4.5625q2.375 -2.609375 4.25 -5.609375q1.875 -3.0 3.234375 -6.21875q1.375 -3.234375 2.265625 -6.46875zm-3.53125 27.984375l20.0 0l0 2.765625l-20.0 0l0 -2.765625zm31.984314 -21.765625l19.40625 0l0 2.90625l-19.40625 0l0 -2.90625zm4.734375 4.015625l2.78125 0.8125q-0.765625 1.828125 -1.8125 3.734375q-1.046875 1.890625 -2.15625 3.609375q-1.109375 1.703125 -2.265625 2.984375q-0.203125 -0.265625 -0.640625 -0.625q-0.421875 -0.359375 -0.859375 -0.71875q-0.421875 -0.375 -0.75 -0.578125q1.65625 -1.84375 3.171875 -4.296875q1.515625 -2.453125 2.53125 -4.921875zm7.46875 6.953125l3.03125 0.546875q-1.96875 6.796875 -5.453125 11.953125q-3.46875 5.15625 -8.375 8.484375q-0.203125 -0.296875 -0.609375 -0.75q-0.40625 -0.4375 -0.859375 -0.875q-0.4375 -0.421875 -0.78125 -0.671875q4.8125 -2.953125 8.09375 -7.75q3.296875 -4.796875 4.953125 -10.9375zm-0.421875 -5.796875l2.390625 -1.28125q0.96875 1.109375 1.921875 2.4375q0.96875 1.3125 1.75 2.59375q0.796875 1.28125 1.234375 2.296875l-2.5625 1.5q-0.390625 -1.0625 -1.15625 -2.359375q-0.765625 -1.3125 -1.6875 -2.671875q-0.90625 -1.375 -1.890625 -2.515625zm-8.359375 9.078125l2.390625 -1.703125q1.609375 1.578125 3.328125 3.421875q1.734375 1.828125 3.3125 3.734375q1.59375 1.890625 2.890625 3.65625q1.296875 1.765625 2.15625 3.265625l-2.5625 2.0q-0.765625 -1.484375 -2.046875 -3.296875q-1.28125 -1.8125 -2.859375 -3.75q-1.578125 -1.953125 -3.296875 -3.828125q-1.703125 -1.875 -3.3125 -3.5zm20.640625 -12.703125l14.15625 0l0 2.984375l-14.15625 0l0 -2.984375zm0.984375 -7.8125l2.984375 0.46875q-0.71875 4.1875 -1.796875 8.140625q-1.0625 3.9375 -2.53125 7.328125q-1.46875 3.390625 -3.34375 6.03125q-0.21875 -0.34375 -0.609375 -0.78125q-0.375 -0.453125 -0.8125 -0.890625q-0.421875 -0.453125 -0.765625 -0.765625q1.796875 -2.34375 3.078125 -5.4375q1.28125 -3.09375 2.21875 -6.6875q0.9375 -3.609375 1.578125 -7.40625zm7.796875 9.6875l3.078125 0.375q-1.0625 7.34375 -3.140625 12.953125q-2.0625 5.609375 -5.546875 9.640625q-3.46875 4.03125 -8.71875 6.765625q-0.203125 -0.3125 -0.59375 -0.765625q-0.390625 -0.4375 -0.84375 -0.90625q-0.4375 -0.46875 -0.78125 -0.71875q5.171875 -2.4375 8.484375 -6.1875q3.328125 -3.75 5.25 -9.015625q1.921875 -5.28125 2.8125 -12.140625zm-8.390625 3.671875q1.109375 5.15625 3.015625 9.75q1.921875 4.578125 4.734375 8.09375q2.828125 3.515625 6.578125 5.484375q-0.34375 0.296875 -0.796875 0.734375q-0.4375 0.453125 -0.828125 0.9375q-0.375 0.5 -0.640625 0.890625q-3.875 -2.265625 -6.734375 -6.03125q-2.859375 -3.78125 -4.84375 -8.6875q-1.984375 -4.90625 -3.21875 -10.578125l2.734375 -0.59375zm-18.34375 -12.296875l2.640625 -1.0625q1.03125 1.203125 1.96875 2.671875q0.9375 1.46875 1.359375 2.53125l-2.8125 1.28125q-0.390625 -1.15625 -1.3125 -2.671875q-0.90625 -1.515625 -1.84375 -2.75z" fill-rule="nonzero"/><path fill="#434343" d="m644.65784 490.24725l24.78125 0l0 3.03125l-24.78125 0l0 -3.03125zm0 9.296875l24.78125 0l0 2.984375l-24.78125 0l0 -2.984375zm0 9.296875l24.78125 0l0 3.03125l-24.78125 0l0 -3.03125zm-2.171875 -28.015625l29.4375 0l0 33.21875l-3.375 0l0 -30.15625l-22.828125 0l0 30.375l-3.234375 0l0 -33.4375zm12.453125 -5.9375l3.71875 0.515625q-0.6875 1.921875 -1.484375 3.84375q-0.78125 1.921875 -1.5 3.328125l-2.859375 -0.5625q0.421875 -1.015625 0.828125 -2.265625q0.40625 -1.265625 0.765625 -2.515625q0.359375 -1.265625 0.53125 -2.34375zm44.62494 9.140625l18.84375 0l0 3.0625l-18.84375 0l0 -3.0625zm9.59375 1.015625q0.765625 3.671875 2.0625 6.78125q1.3125 3.109375 3.296875 5.5q1.984375 2.390625 4.625 3.796875q-0.34375 0.296875 -0.78125 0.765625q-0.421875 0.46875 -0.78125 0.96875q-0.359375 0.484375 -0.578125 0.875q-2.8125 -1.703125 -4.890625 -4.375q-2.0625 -2.671875 -3.453125 -6.15625q-1.375 -3.5 -2.1875 -7.640625l2.6875 -0.515625zm-20.859375 0.9375l1.5 -1.875q1.140625 0.46875 2.421875 1.15625q1.28125 0.671875 2.40625 1.390625q1.140625 0.703125 1.859375 1.328125l-1.484375 2.09375q-0.6875 -0.59375 -1.828125 -1.34375q-1.125 -0.75 -2.40625 -1.484375q-1.28125 -0.75 -2.46875 -1.265625zm22.515625 -8.703125l2.359375 -1.359375q1.265625 1.28125 2.59375 2.859375q1.328125 1.578125 2.046875 2.8125l-2.46875 1.53125q-0.640625 -1.234375 -1.953125 -2.875q-1.296875 -1.640625 -2.578125 -2.96875zm-26.484375 13.90625l1.796875 -1.703125q1.140625 0.640625 2.375 1.453125q1.25 0.8125 2.328125 1.625q1.09375 0.796875 1.78125 1.53125l-1.875 1.921875q-0.6875 -0.6875 -1.765625 -1.5625q-1.0625 -0.875 -2.28125 -1.71875q-1.203125 -0.859375 -2.359375 -1.546875zm4.859375 -16.546875l3.078125 0.8125q-1.03125 2.890625 -2.59375 5.890625q-1.546875 2.984375 -3.53125 5.6875q-1.984375 2.703125 -4.28125 4.796875q-0.390625 -0.46875 -1.046875 -1.0625q-0.65625 -0.59375 -1.171875 -0.9375q2.21875 -1.921875 4.0625 -4.453125q1.859375 -2.546875 3.265625 -5.34375q1.40625 -2.796875 2.21875 -5.390625zm7.890625 4.140625l0.640625 0l0.609375 -0.09375l1.90625 0.765625q-1.265625 6.28125 -3.8125 10.9375q-2.53125 4.640625 -6.015625 7.828125q-3.46875 3.171875 -7.5625 5.09375q-0.21875 -0.390625 -0.609375 -0.859375q-0.375 -0.46875 -0.8125 -0.90625q-0.421875 -0.453125 -0.796875 -0.71875q4.046875 -1.75 7.34375 -4.609375q3.3125 -2.859375 5.671875 -7.03125q2.375 -4.1875 3.4375 -9.734375l0 -0.671875zm-7.96875 0l9.171875 0l0 2.640625l-10.796875 0l1.625 -2.640625zm17.40625 -3.28125l3.03125 0l0 7.75q0 2.609375 -0.40625 5.359375q-0.40625 2.75 -1.65625 5.484375q-1.234375 2.734375 -3.640625 5.25q-2.40625 2.515625 -6.375 4.640625q-0.390625 -0.546875 -1.046875 -1.1875q-0.65625 -0.640625 -1.25 -1.03125q3.796875 -2.0 6.046875 -4.296875q2.265625 -2.3125 3.40625 -4.765625q1.15625 -2.453125 1.515625 -4.859375q0.375 -2.40625 0.375 -4.625l0 -7.71875zm-13.609375 30.5l2.9375 -0.3125q0.4375 1.890625 0.734375 4.09375q0.296875 2.1875 0.328125 3.640625l-3.15625 0.46875q0 -1.03125 -0.109375 -2.375q-0.09375 -1.34375 -0.296875 -2.796875q-0.1875 -1.453125 -0.4375 -2.71875zm8.78125 -0.09375l2.953125 -0.546875q0.59375 1.234375 1.140625 2.671875q0.5625 1.421875 0.984375 2.75q0.421875 1.3125 0.640625 2.328125l-3.15625 0.6875q-0.296875 -1.53125 -1.0 -3.75q-0.703125 -2.21875 -1.5625 -4.140625zm8.828125 -0.21875l2.828125 -1.1875q1.0625 1.28125 2.171875 2.796875q1.109375 1.515625 2.0625 3.015625q0.96875 1.484375 1.515625 2.59375l-2.984375 1.40625q-0.515625 -1.15625 -1.4375 -2.65625q-0.90625 -1.484375 -2.0 -3.0625q-1.078125 -1.578125 -2.15625 -2.90625zm-24.984375 -0.890625l2.9375 0.8125q-1.109375 2.171875 -2.609375 4.5625q-1.484375 2.390625 -2.9375 4.046875l-2.984375 -1.1875q0.984375 -1.03125 2.0 -2.390625q1.03125 -1.359375 1.9375 -2.875q0.921875 -1.515625 1.65625 -2.96875z" fill-rule="nonzero"/><path fill="#000000" fill-opacity="0.0" d="m514.6552 902.0079l250.07874 0l0 76.31494l-250.07874 0z" fill-rule="evenodd"/><path fill="#595959" d="m535.49896 918.431q2.96875 0 5.796875 1.53125q2.828125 1.515625 4.40625 4.359375q1.578125 2.828125 1.578125 5.90625q0 3.046875 -1.5625 5.859375q-1.546875 2.8125 -4.359375 4.375q-2.796875 1.546875 -5.859375 1.546875q-3.0625 0 -5.875 -1.546875q-2.796875 -1.5625 -4.359375 -4.375q-1.5625 -2.8125 -1.5625 -5.859375q0 -3.078125 1.578125 -5.90625q1.59375 -2.84375 4.421875 -4.359375q2.828125 -1.53125 5.796875 -1.53125zm0 1.953125q-2.484375 0 -4.84375 1.28125q-2.34375 1.265625 -3.671875 3.640625q-1.328125 2.359375 -1.328125 4.921875q0 2.546875 1.296875 4.890625q1.3125 2.328125 3.65625 3.640625q2.34375 1.296875 4.890625 1.296875q2.546875 0 4.890625 -1.296875q2.34375 -1.3125 3.640625 -3.640625q1.296875 -2.34375 1.296875 -4.890625q0 -2.5625 -1.328125 -4.921875q-1.3125 -2.375 -3.671875 -3.640625q-2.359375 -1.28125 -4.828125 -1.28125zm3.78125 11.75l1.921875 0.5625q-0.46875 1.953125 -2.0 3.125q-1.515625 1.15625 -3.6875 1.15625q-2.75 0 -4.46875 -1.78125q-1.71875 -1.78125 -1.71875 -4.9375q0 -2.0625 0.78125 -3.578125q0.78125 -1.53125 2.21875 -2.296875q1.453125 -0.78125 3.3125 -0.78125q2.078125 0 3.453125 1.0q1.375 0.984375 1.875 2.6875l-1.859375 0.453125q-0.46875 -1.15625 -1.390625 -1.765625q-0.90625 -0.625 -2.140625 -0.625q-1.796875 0 -2.96875 1.28125q-1.15625 1.28125 -1.15625 3.671875q0 2.390625 1.09375 3.625q1.109375 1.21875 2.859375 1.21875q1.40625 0 2.46875 -0.8125q1.0625 -0.8125 1.40625 -2.203125zm32.953125 6.890625l0 2.703125l-15.140625 0q-0.03125 -1.015625 0.328125 -1.953125q0.578125 -1.546875 1.84375 -3.046875q1.28125 -1.5 3.6875 -3.46875q3.734375 -3.0625 5.046875 -4.84375q1.3125 -1.796875 1.3125 -3.390625q0 -1.671875 -1.203125 -2.8125q-1.1875 -1.15625 -3.109375 -1.15625q-2.03125 0 -3.25 1.21875q-1.21875 1.21875 -1.234375 3.375l-2.890625 -0.296875q0.296875 -3.234375 2.234375 -4.921875q1.9375 -1.703125 5.203125 -1.703125q3.296875 0 5.21875 1.828125q1.921875 1.828125 1.921875 4.53125q0 1.375 -0.5625 2.703125q-0.5625 1.328125 -1.875 2.796875q-1.296875 1.46875 -4.328125 4.03125q-2.53125 2.125 -3.25 2.890625q-0.71875 0.75 -1.1875 1.515625l11.234375 0zm3.015625 -8.59375q0 -4.0625 0.828125 -6.53125q0.84375 -2.484375 2.484375 -3.828125q1.65625 -1.34375 4.15625 -1.34375q1.84375 0 3.234375 0.75q1.390625 0.734375 2.296875 2.140625q0.90625 1.390625 1.421875 3.40625q0.515625 2.0 0.515625 5.40625q0 4.03125 -0.828125 6.515625q-0.828125 2.46875 -2.484375 3.828125q-1.640625 1.34375 -4.15625 1.34375q-3.3125 0 -5.203125 -2.375q-2.265625 -2.859375 -2.265625 -9.3125zm2.890625 0q0 5.640625 1.3125 7.515625q1.328125 1.859375 3.265625 1.859375q1.9375 0 3.25 -1.875q1.328125 -1.875 1.328125 -7.5q0 -5.65625 -1.328125 -7.515625q-1.3125 -1.859375 -3.28125 -1.859375q-1.9375 0 -3.09375 1.640625q-1.453125 2.09375 -1.453125 7.734375zm29.6875 8.59375l0 2.703125l-15.140625 0q-0.03125 -1.015625 0.328125 -1.953125q0.578125 -1.546875 1.84375 -3.046875q1.28125 -1.5 3.6875 -3.46875q3.734375 -3.0625 5.046875 -4.84375q1.3125 -1.796875 1.3125 -3.390625q0 -1.671875 -1.203125 -2.8125q-1.1875 -1.15625 -3.109375 -1.15625q-2.03125 0 -3.25 1.21875q-1.21875 1.21875 -1.234375 3.375l-2.890625 -0.296875q0.296875 -3.234375 2.234375 -4.921875q1.9375 -1.703125 5.203125 -1.703125q3.296875 0 5.21875 1.828125q1.921875 1.828125 1.921875 4.53125q0 1.375 -0.5625 2.703125q-0.5625 1.328125 -1.875 2.796875q-1.296875 1.46875 -4.328125 4.03125q-2.53125 2.125 -3.25 2.890625q-0.71875 0.75 -1.1875 1.515625l11.234375 0zm12.03125 2.703125l0 -5.484375l-9.9375 0l0 -2.578125l10.453125 -14.84375l2.296875 0l0 14.84375l3.09375 0l0 2.578125l-3.09375 0l0 5.484375l-2.8125 0zm0 -8.0625l0 -10.328125l-7.171875 10.328125l7.171875 0z" fill-rule="nonzero"/><path fill="#595959" d="m642.4521 925.4779l0.5 -2.625l2.375 0q1.25 0 0.125 0.75l-0.5 1.875l4.25 0l0 7.5l-2.125 0l0 -0.75l-5.875 0l0 2.625l8.5 0l0 8.625l-2.125 0l0 -1.375l-6.375 0l0 2.375l-2.125 0l0 -19.0l3.375 0zm-1.25 11.375l0 3.25l6.375 0l0 -3.25l-6.375 0zm24.625 2.0l-6.5 0l0 5.625l-2.5 0l0 -5.625l-5.625 0l0 -2.0l5.625 0l0 -2.875l-6.75 0l0 -2.0l4.25 0l-1.125 -3.75l-2.0 0l0 -2.0l5.625 0l0 -3.5l-1.625 0l0 -1.75l-6.5 0l0 2.5l-2.5 0l0 -2.5l-7.625 0l0 -2.375l7.625 0l0 -2.625l2.375 0q1.0 0.125 0.125 0.75l0 1.875l6.5 0l0 -2.625l2.375 0q1.0 0.125 0.125 0.75l0 1.875l8.0 0l0 2.375l-8.0 0l0 1.625l1.5 0q1.0 0.125 0.125 0.75l0 2.875l5.875 0l0 2.0l-2.125 0l-1.375 3.75l4.875 0l0 2.0l-7.25 0l0 2.875l6.5 0l0 2.0zm-18.75 -8.625l0 -2.75l-5.875 0l0 2.75l5.875 0zm9.5 1.75l2.75 0l1.25 -3.75l-4.875 0l0.875 3.75zm37.25 12.25l-0.5 -2.0l1.125 0q1.125 0 1.125 -0.875l0 -5.125q-1.125 2.125 -2.75 3.5l-0.875 -2.25q2.125 -1.75 3.625 -4.375l0 -2.5q-1.25 2.0 -2.875 3.375l-0.625 -2.375q2.125 -1.75 3.25 -4.25l-3.5 0l0 14.625q0 2.25 -2.25 2.25l-1.875 0l-0.375 -2.0l1.25 0q1.125 0 1.125 -0.875l0 -4.625q-1.625 2.75 -3.625 4.125l-1.0 -2.0l-3.875 0l0 5.5l-2.125 0l0 -5.5l-4.125 0l0 -2.0l4.125 0l0 -2.625l-1.625 0l-1.625 0l0 -10.75l3.25 0l0 -2.375l-3.875 0l0 -1.25l-1.75 1.75q-1.625 -1.625 -3.125 -2.875l1.625 -2.0q1.75 1.25 3.25 2.875l0 -0.5l3.875 0l0 -3.25l2.0 0q1.0 0.125 0.125 0.75l0 2.5l4.125 0l0 2.0l-4.125 0l0 2.375l3.5 0l0 0.25q4.0 -3.625 5.625 -8.125l2.0 0.5q1.375 0.375 -0.125 0.875q2.75 3.5 6.5 5.5l-1.0 2.375q-4.0 -2.375 -6.375 -5.875q-1.875 3.875 -4.625 6.375l11.0 0l0 16.625q0 2.25 -2.25 2.25l-1.625 0zm-7.625 -18.625l-1.5 -1.625l0 10.25l-3.5 0l0 2.625l4.125 0l0 1.75q2.0 -1.25 4.375 -5.0l0 -3.375q-1.125 2.0 -3.5 4.25l-0.75 -2.25q2.125 -1.75 4.0 -4.875l-3.25 0l0 -1.75zm-3.625 -0.125l-4.625 0l0 2.375l4.625 0l0 -2.375zm0 4.375l-4.625 0l0 2.375l4.625 0l0 -2.375zm-11.375 -5.75q2.25 1.5 3.625 3.0l-1.625 2.25q-1.5 -1.625 -3.5 -3.125l1.5 -2.125zm3.5 10.0q-1.25 5.75 -2.625 8.625q0.625 1.625 -0.625 0.875l-2.0 -1.875q2.0 -4.0 3.5 -9.25l1.75 1.625zm55.25 -7.0l0 2.375l-16.375 0q-2.375 9.125 -10.0 14.375l-1.625 -2.625q6.625 -4.0 8.875 -11.75l-8.375 0l0 -2.375l9.0 0q0.375 -1.375 0.75 -4.5l2.875 0.5q0.875 0.375 -0.25 0.875q-0.375 1.625 -0.75 3.125l15.875 0zm-18.625 16.0q-1.0 1.5 -1.375 0l-0.75 -2.75l3.25 -0.125q2.125 -3.875 4.375 -9.625l2.75 1.125q1.375 0.5 -0.25 1.0q-2.125 3.875 -4.125 7.375l8.75 -0.625q-1.375 -2.0 -3.25 -4.125l2.25 -1.5q3.5 3.375 6.75 8.5l-2.5 1.875q-0.875 -1.375 -1.75 -2.625l-14.125 1.5zm-5.375 -18.0l-2.5 0l0 -5.875l11.375 0l0 -3.625l2.375 0q1.0 0.125 0.125 0.75l0 2.875l11.5 0l0 5.875l-2.5 0l0 -3.5l-20.375 0l0 3.5z" fill-rule="nonzero"/></g></svg>